<?xml version="1.0" encoding="UTF-8"?>
<svg version="1.1" xmlns="http://www.w3.org/2000/svg" width="500" height="500">
<path d="M0 0 C165 0 330 0 500 0 C500 165 500 330 500 500 C335 500 170 500 0 500 C0 335 0 170 0 0 Z " fill="#F4F4F4" transform="translate(0,0)"/>
<path d="M0 0 C0 23.76 0 47.52 0 72 C-2.97 73.65 -5.94 75.3 -9 77 C-11.18178992 78.3508746 -13.34941061 79.7249876 -15.5 81.125 C-16.08112549 81.50188965 -16.66225098 81.8787793 -17.26098633 82.26708984 C-18.51282144 83.07920694 -19.76385969 83.89255347 -21.01416016 84.70703125 C-24.56717195 87.02037653 -28.12793704 89.32175338 -31.6875 91.625 C-32.4108252 92.09341309 -33.13415039 92.56182617 -33.87939453 93.04443359 C-40.58643377 97.38572274 -47.32437539 101.67707988 -54.078125 105.9453125 C-55.08359375 106.58210938 -56.0890625 107.21890625 -57.125 107.875 C-58.03507812 108.44992187 -58.94515625 109.02484375 -59.8828125 109.6171875 C-61.89932191 110.83087196 -61.89932191 110.83087196 -63 112 C-68.50473421 112.41320524 -72.81153335 111.28047019 -77.875 109.3125 C-83.72156935 107.1435183 -89.56753911 105.15618477 -95.5625 103.4375 C-108.489248 99.71960356 -121.40227829 95.85149948 -134 91.125 C-140.05061519 88.90474625 -146.20764166 87.12256008 -152.3984375 85.34375 C-158.29023542 83.64403576 -164.14282293 81.81467796 -170 80 C-170.28955022 72.35450104 -170.57375367 64.70881582 -170.85449219 57.06298828 C-170.95030826 54.46984511 -171.04728361 51.87674448 -171.14550781 49.28369141 C-171.69141537 34.85056405 -172.17429309 20.44454001 -172 6 C-162.22083694 7.22012103 -153.40133411 10.05178761 -144.140625 13.26708984 C-136.36925752 15.92786142 -128.4777627 18.20213345 -120.53515625 20.2890625 C-118.75386483 20.7885926 -116.98720574 21.34188959 -115.234375 21.93359375 C-111.25432018 23.2458582 -107.23068078 24.3387592 -103.1875 25.4375 C-97.05745963 27.12364404 -91.00018088 28.89344731 -85 31 C-82.41915176 31.90397965 -79.83622473 32.79927028 -77.25 33.6875 C-76.61102783 33.914375 -75.97205566 34.14125 -75.3137207 34.375 C-70.29563591 36.09225038 -67.03936388 36.97608175 -62.16796875 34.64453125 C-60.69263672 33.73767578 -60.69263672 33.73767578 -59.1875 32.8125 C-58.14078125 32.17828125 -57.0940625 31.5440625 -56.015625 30.890625 C-52.8602631 28.91239293 -49.71683837 26.91814351 -46.62109375 24.84765625 C-45 24 -45 24 -42 24 C-42 33.9 -42 43.8 -42 54 C-36.20671292 50.38720751 -36.20671292 50.38720751 -30.42260742 46.75976562 C-29.69920166 46.31310547 -28.9757959 45.86644531 -28.23046875 45.40625 C-27.49207764 44.94541016 -26.75368652 44.48457031 -25.99291992 44.00976562 C-24 43 -24 43 -21 43 C-21.05760498 42.06728271 -21.11520996 41.13456543 -21.17456055 40.17358398 C-21.36296423 36.68583933 -21.50027362 33.20354055 -21.60424805 29.71264648 C-21.65932263 28.20754372 -21.73422121 26.70302328 -21.82983398 25.19995117 C-22.13541175 20.26985421 -22.20129078 15.81669815 -21 11 C-17.77470606 7.54492955 -14.31443273 5.81785803 -10 4 C-8.47642132 3.19265974 -6.95520889 2.38082145 -5.4375 1.5625 C-2 0 -2 0 0 0 Z " fill="#C3C3C3" transform="translate(334,166)"/>
<path d="M0 0 C1.69225708 0.33451172 1.69225708 0.33451172 3.41870117 0.67578125 C21.1349146 4.20804659 38.79310776 7.98006672 56.34472656 12.25732422 C61.71014233 13.55136128 67.05904183 14.58678261 72.51953125 15.40625 C77.49890746 16.26107853 82.37041135 17.57723706 87.25 18.875 C87.25 19.535 87.25 20.195 87.25 20.875 C86.07244141 21.45507812 86.07244141 21.45507812 84.87109375 22.046875 C83.82050781 22.56765625 82.76992188 23.0884375 81.6875 23.625 C80.02654297 24.43710938 80.02654297 24.43710938 78.33203125 25.265625 C75.93651306 26.51651663 74.00830917 27.76537138 71.875 29.375 C63.59011379 32.80322878 53.25118905 28.8177681 44.96875 26.36328125 C38.9075375 25.27470142 34.74661617 27.45708478 29.5625 30.4375 C23.56589537 33.875 23.56589537 33.875 20.25 33.875 C20.25 34.535 20.25 35.195 20.25 35.875 C21.35408203 36.05675781 21.35408203 36.05675781 22.48046875 36.2421875 C23.45628906 36.40976563 24.43210937 36.57734375 25.4375 36.75 C26.40042969 36.91242188 27.36335938 37.07484375 28.35546875 37.2421875 C31.17083891 37.85769353 33.5905683 38.7839511 36.25 39.875 C37.84535222 40.28588563 39.44991364 40.66304166 41.0625 41 C41.85269531 41.16757813 42.64289063 41.33515625 43.45703125 41.5078125 C44.34455078 41.68957031 44.34455078 41.68957031 45.25 41.875 C45.25 42.535 45.25 43.195 45.25 43.875 C44.59515625 44.22691406 43.9403125 44.57882813 43.265625 44.94140625 C37.06873388 48.29367927 30.99038571 51.78551924 24.9765625 55.45703125 C20.57717041 57.74496725 17.36549689 58.22622124 12.625 56.765625 C11.76028076 56.50700684 10.89556152 56.24838867 10.00463867 55.98193359 C9.09560791 55.69914551 8.18657715 55.41635742 7.25 55.125 C5.35098768 54.55745667 3.45124788 53.99234174 1.55078125 53.4296875 C0.63506348 53.15737305 -0.2806543 52.88505859 -1.22412109 52.60449219 C-5.31091798 51.42419554 -9.44140764 50.49704484 -13.59375 49.58203125 C-19.32678568 48.2977745 -25.01440251 46.82458202 -30.71044922 45.38671875 C-32.7025971 44.88689328 -34.6965519 44.39515079 -36.69140625 43.90625 C-44.05083496 42.09790192 -51.3798185 40.19547961 -58.6875 38.1875 C-59.47560059 37.97295166 -60.26370117 37.75840332 -61.07568359 37.53735352 C-66.63070913 35.99429087 -66.63070913 35.99429087 -67.75 34.875 C-70.39370501 34.33630485 -73.03061359 33.83886435 -75.6875 33.375 C-83.48795181 32.0060241 -83.48795181 32.0060241 -85.75 30.875 C-85.75 30.215 -85.75 29.555 -85.75 28.875 C-78.75363381 25.53401022 -71.75341695 22.20118424 -64.75 18.875 C-63.98913086 18.51325684 -63.22826172 18.15151367 -62.44433594 17.77880859 C-50.5498983 12.13356421 -50.5498983 12.13356421 -44.5625 9.8125 C-37.9827625 7.26162007 -31.63701337 4.06732934 -25.4921875 0.6015625 C-24.83476562 0.23804687 -24.17734375 -0.12546875 -23.5 -0.5 C-22.68789062 -0.97566406 -22.68789062 -0.97566406 -21.859375 -1.4609375 C-14.81387484 -3.67896533 -7.00530369 -1.41686257 0 0 Z " fill="#C3C3C3" transform="translate(246.75,113.125)"/>
<path d="M0 0 C6.06769352 0.95872081 11.98952895 2.20973583 17.91796875 3.82421875 C19.25042294 4.18429986 20.58302875 4.54382033 21.91577148 4.90283203 C22.93270584 5.17707001 22.93270584 5.17707001 23.97018433 5.45684814 C31.36425264 7.43540313 38.78790065 9.30596527 46.20385742 11.20068359 C47.7700464 11.60113192 49.33620789 12.00168774 50.90234375 12.40234375 C51.6994426 12.60621704 52.49654144 12.81009033 53.3177948 13.0201416 C58.77168868 14.41876016 64.21804932 15.84430471 69.66146851 17.28312683 C73.58213367 18.31801841 77.50521358 19.34357066 81.42858887 20.36813354 C83.3427165 20.87048571 85.25574066 21.3770625 87.16760254 21.88796997 C89.85507817 22.60557264 92.54607668 23.30819434 95.23828125 24.0078125 C96.43608971 24.3336306 96.43608971 24.3336306 97.65809631 24.66603088 C103.04660465 26.04480338 107.24249897 26.38552016 112.38671875 23.80078125 C113.14597656 23.30964844 113.90523438 22.81851563 114.6875 22.3125 C118.40918729 19.98009203 122.15371796 17.74726047 126 15.625 C127.36125 14.87089844 127.36125 14.87089844 128.75 14.1015625 C131 13 131 13 133 13 C133 21.91 133 30.82 133 40 C130.03 41.32 127.06 42.64 124 44 C120.53094988 46.10256901 117.12137884 48.27414267 113.72265625 50.48828125 C105.52149736 54.6046062 95.15635993 49.74575956 87.125 47.125 C79.6782259 44.73045427 72.27407279 42.4794259 64.65185547 40.70654297 C61.99071178 39.99752531 59.5513586 39.02863236 57 38 C55.61587315 37.64122945 54.22188378 37.3182135 52.8203125 37.03515625 C52.05589844 36.87466797 51.29148438 36.71417969 50.50390625 36.54882812 C48.92623282 36.22629883 47.34810941 35.90596234 45.76953125 35.58789062 C41.5708552 34.70228752 37.93406412 33.5792636 34.01464844 31.78295898 C29.37484377 29.9797775 24.40783701 29.0925481 19.5625 28 C12.49554206 26.40087693 5.71688902 24.7422536 -1 22 C-1.09377123 14.58165418 -1.17402193 7.33763707 0 0 Z " fill="#C3C3C3" transform="translate(160,146)"/>
<path d="M0 0 C0.33865141 2.99948391 0.67105073 5.99944926 1 9 C1.09539062 9.83917969 1.19078125 10.67835938 1.2890625 11.54296875 C1.85214909 16.73140945 2.09664316 21.78126961 2 27 C-9.9140625 32.95703125 -9.9140625 32.95703125 -12.01269531 34.00244141 C-13.81546414 34.90736935 -15.60761529 35.83337298 -17.3984375 36.76171875 C-20 38 -20 38 -22 38 C-22.02891949 33.70834738 -22.04677118 29.41671964 -22.0625 25.125 C-22.07087891 23.90167969 -22.07925781 22.67835938 -22.08789062 21.41796875 C-22.09111328 20.25136719 -22.09433594 19.08476562 -22.09765625 17.8828125 C-22.10289307 16.80402832 -22.10812988 15.72524414 -22.11352539 14.61376953 C-22 12 -22 12 -21 10 C-18.76559436 8.7862849 -16.54235489 7.65531291 -14.25 6.5625 C-10.81799143 4.90701869 -7.43023215 3.2620613 -4.171875 1.27734375 C-2 0 -2 0 0 0 Z " fill="#C4C4C4" transform="translate(336,135)"/>
<path d="M0 0 C1.98 0 3.96 0 6 0 C6 6.93 6 13.86 6 21 C9.3 21 12.6 21 16 21 C16.33 21.33 16.66 21.66 17 22 C17.98238408 19.58459694 18.96100218 17.16778178 19.9375 14.75 C20.21529297 14.06808594 20.49308594 13.38617188 20.77929688 12.68359375 C22.06975756 9.48076362 23.21800044 6.36162466 24 3 C24.66 3 25.32 3 26 3 C26 2.01 26 1.02 26 0 C28.31 0 30.62 0 33 0 C35.38562033 5.78412973 37.62788884 11.61413014 39.75 17.5 C40.17796875 18.6859375 40.6059375 19.871875 41.046875 21.09375 C42 24 42 24 42 26 C40.02 26 38.04 26 36 26 C35.505 23.03 35.505 23.03 35 20 C31.37 20 27.74 20 24 20 C24 21.65 24 23.3 24 25 C22.34605883 26.65394117 20.39684587 26.12999683 18.125 26.1328125 C17.14015625 26.13410156 16.1553125 26.13539063 15.140625 26.13671875 C14.10421875 26.13285156 13.0678125 26.12898438 12 26.125 C10.44539063 26.13080078 10.44539063 26.13080078 8.859375 26.13671875 C7.87453125 26.13542969 6.8896875 26.13414062 5.875 26.1328125 C4.96492188 26.13168457 4.05484375 26.13055664 3.1171875 26.12939453 C1 26 1 26 0 25 C-0.08737645 23.14630389 -0.10698153 21.28932459 -0.09765625 19.43359375 C-0.09443359 18.30888672 -0.09121094 17.18417969 -0.08789062 16.02539062 C-0.07951172 14.84138672 -0.07113281 13.65738281 -0.0625 12.4375 C-0.05798828 11.24962891 -0.05347656 10.06175781 -0.04882812 8.83789062 C-0.03699675 5.89187774 -0.02051287 2.94596319 0 0 Z " fill="#CDCDCD" transform="translate(281,364)"/>
<path d="M0 0 C0 0.66 0 1.32 0 2 C1.11375 2.0928125 1.11375 2.0928125 2.25 2.1875 C6.07525149 3.31768794 7.07340087 4.50357935 9 8 C9.86225727 12.35550467 9.99406538 16.2203023 7.7890625 20.16796875 C4.43602122 24.29544342 2.09904433 25.54745933 -3.11328125 26.30859375 C-7.72671265 26.57900802 -10.38508664 26.19868556 -14 23.1875 C-17.36796432 20.03003345 -18.16491267 17.17690388 -18.3125 12.625 C-18.26426652 9.32368595 -18.04827605 8.08541147 -16.375 5.125 C-11.04404957 0.35520224 -6.89401426 -0.35658694 0 0 Z " fill="#CBCBCB" transform="translate(167,321)"/>
<path d="M0 0 C14.43250817 -0.84072863 14.43250817 -0.84072863 21.42578125 4.39453125 C23.96250397 6.98161074 24.13808751 9.54489624 24.125 13 C24.12886719 14.0209375 24.12886719 14.0209375 24.1328125 15.0625 C24 17 24 17 23 20 C22.34 20 21.68 20 21 20 C20.67 20.99 20.34 21.98 20 23 C15.93917829 26.28077686 12.19323465 26.37285708 7.1875 26.1875 C4.815625 26.125625 2.44375 26.06375 0 26 C0 17.42 0 8.84 0 0 Z " fill="#CCCCCC" transform="translate(179,321)"/>
<path d="M0 0 C3.79857641 3.03886113 5.29390209 5.24649822 6.0625 10.0625 C6.44046133 14.83426174 5.68951819 17.66337029 3.1875 21.75 C-1.45698371 24.9870644 -8.57487879 24.29252031 -13.98046875 23.38671875 C-16.48478376 22.51634914 -17.68769324 20.98926663 -19.046875 18.76171875 C-20.65600578 14.53364552 -20.47944568 10.16935723 -19.8125 5.75 C-18.03734891 2.5284295 -16.69713743 1.2660385 -13.5625 -0.5625 C-8.74753077 -1.76624231 -4.58939005 -2.03972891 0 0 Z " fill="#CCCCCC" transform="translate(161.8125,365.25)"/>
<path d="M0 0 C2.31 0 4.62 0 7 0 C7.48210937 0.99902344 7.96421875 1.99804688 8.4609375 3.02734375 C9.09864089 4.33088451 9.73667911 5.63426151 10.375 6.9375 C10.69210937 7.59685547 11.00921875 8.25621094 11.3359375 8.93554688 C12.95477369 12.61304807 12.95477369 12.61304807 16 15 C16.27585937 14.28457031 16.55171875 13.56914062 16.8359375 12.83203125 C17.98248522 10.04261145 19.26227115 7.37709642 20.625 4.6875 C21.07101562 3.80449219 21.51703125 2.92148437 21.9765625 2.01171875 C22.31429688 1.34785156 22.65203125 0.68398438 23 0 C25.31 0 27.62 0 30 0 C30 8.58 30 17.16 30 26 C28.02 26 26.04 26 24 26 C23.67 21.38 23.34 16.76 23 12 C21.35 15.63 19.7 19.26 18 23 C16.35 23 14.7 23 13 23 C11.99491199 21.21118264 10.99607264 19.41885304 10 17.625 C9.1646875 16.12839844 9.1646875 16.12839844 8.3125 14.6015625 C7 12 7 12 7 10 C6.34 10 5.68 10 5 10 C5 15.28 5 20.56 5 26 C3.35 26 1.7 26 0 26 C0 17.42 0 8.84 0 0 Z " fill="#CDCDCD" transform="translate(294,321)"/>
<path d="M0 0 C13 0 13 0 18 2 C19 3 19 3 19.125 5.9375 C19 9 19 9 18 11 C17.34 11 16.68 11 16 11 C16 11.66 16 12.32 16 13 C17.32 13.66 18.64 14.32 20 15 C20 17.31 20 19.62 20 22 C19.34 22 18.68 22 18 22 C18 22.66 18 23.32 18 24 C13 26 13 26 0 26 C0 17.42 0 8.84 0 0 Z " fill="#CBCBCB" transform="translate(326,364)"/>
<path d="M0 0 C12 0 12 0 17 3 C18 4 18 4 18.1875 7.375 C18 11 18 11 16 14 C16.26892497 16.68924967 17.14525356 18.23821583 18.5625 20.5625 C20 23 20 23 20 26 C17.69 26 15.38 26 13 26 C12.01 23.03 11.02 20.06 10 17 C8.68 17 7.36 17 6 17 C6 19.97 6 22.94 6 26 C4.02 26 2.04 26 0 26 C0 17.42 0 8.84 0 0 Z " fill="#CCCCCC" transform="translate(128,321)"/>
<path d="M0 0 C5 0 5 0 7.3515625 2.30078125 C8.47691406 3.79158203 8.47691406 3.79158203 9.625 5.3125 C11.99935641 8.4121291 14.23339622 11.23339622 17 14 C17 9.38 17 4.76 17 0 C18.98 0 20.96 0 23 0 C23 8.58 23 17.16 23 26 C18 26 18 26 16.0859375 24.42578125 C15.52132812 23.72839844 14.95671875 23.03101563 14.375 22.3125 C13.77945313 21.58417969 13.18390625 20.85585938 12.5703125 20.10546875 C10.87130806 17.82745036 9.43983249 15.44771523 8 13 C7.01 12.34 6.02 11.68 5 11 C5 15.62 5 20.24 5 25 C3.35 25 1.7 25 0 25 C0 16.75 0 8.5 0 0 Z " fill="#CCCCCC" transform="translate(115,364)"/>
<path d="M0 0 C2.31 0 4.62 0 7 0 C7 0.99 7 1.98 7 3 C7.66 3 8.32 3 9 3 C9.18175781 3.56847656 9.36351562 4.13695312 9.55078125 4.72265625 C10.76598172 8.45550283 11.99767993 12.11220566 13.625 15.6875 C14.93745878 18.8493325 15.58722799 21.61526954 16 25 C14.02 25 12.04 25 10 25 C9.505 22.525 9.505 22.525 9 20 C5.7 20 2.4 20 -1 20 C-1.66 21.98 -2.32 23.96 -3 26 C-4.98 26 -6.96 26 -9 26 C-7.90265648 20.3067236 -6.41810969 15.30124047 -4 10 C-3.26296958 8.19068344 -2.53411769 6.37801871 -1.8125 4.5625 C-1.46832031 3.69753906 -1.12414062 2.83257812 -0.76953125 1.94140625 C-0.51558594 1.30074219 -0.26164063 0.66007812 0 0 Z " fill="#CECECE" transform="translate(251,364)"/>
<path d="M0 0 C2.31 0 4.62 0 7 0 C7.33 2.31 7.66 4.62 8 7 C8.66 7 9.32 7 10 7 C10.81436587 9.41605225 11.62655397 11.83279998 12.4375 14.25 C12.66759766 14.93191406 12.89769531 15.61382812 13.13476562 16.31640625 C14.20803714 19.52066613 15.26015608 22.70046619 16 26 C14.00045254 26.04254356 11.99958364 26.04080783 10 26 C9.67 25.67 9.34 25.34 9 25 C9 23.35 9 21.7 9 20 C5.37 20 1.74 20 -2 20 C-2.66 21.98 -3.32 23.96 -4 26 C-5.98 26 -7.96 26 -10 26 C-7.70175036 16.89455379 -3.8597477 8.5231689 0 0 Z " fill="#CCCCCC" transform="translate(206,364)"/>
<path d="M0 0 C13.00552486 -0.60773481 13.00552486 -0.60773481 17.375 2.0625 C19.42783478 5.77339365 19.6724224 7.8160384 19 12 C17.5625 14.9375 17.5625 14.9375 15 17 C11.87789286 17.41914691 9.17392665 17.23337696 6 17 C6 19.97 6 22.94 6 26 C4.02 26 2.04 26 0 26 C0 17.42 0 8.84 0 0 Z " fill="#CBCBCB" transform="translate(105,321)"/>
<path d="M0 0 C2.31 0 4.62 0 7 0 C9.65039795 4.93467486 11.4553439 9.94660848 13.1875 15.25 C13.46013672 16.0646875 13.73277344 16.879375 14.01367188 17.71875 C16 23.7324953 16 23.7324953 16 26 C13.625 25.8125 13.625 25.8125 11 25 C9.6875 22.4375 9.6875 22.4375 9 20 C5.7 20 2.4 20 -1 20 C-1.33 21.98 -1.66 23.96 -2 26 C-4.31 26 -6.62 26 -9 26 C-8.6754682 21.88926388 -7.51504923 18.8484721 -5.625 15.25 C-3.0397826 10.31935349 -1.40625061 5.37347794 0 0 Z " fill="#CCCCCC" transform="translate(335,321)"/>
<path d="M0 0 C0 1.32 0 2.64 0 4 C-0.91523438 3.97679687 -1.83046875 3.95359375 -2.7734375 3.9296875 C-3.96195312 3.91164063 -5.15046875 3.89359375 -6.375 3.875 C-7.55835938 3.85179687 -8.74171875 3.82859375 -9.9609375 3.8046875 C-13.11153817 3.67133771 -13.11153817 3.67133771 -15 6 C-15.46290221 8.66242821 -15.46290221 8.66242821 -15.625 11.625 C-15.69976562 12.62789063 -15.77453125 13.63078125 -15.8515625 14.6640625 C-15.90054687 15.43492187 -15.94953125 16.20578125 -16 17 C-12.3162378 18.54379132 -8.96435532 19.44683414 -5 20 C-5 18.02 -5 16.04 -5 14 C-6.32 14 -7.64 14 -9 14 C-9 12.68 -9 11.36 -9 10 C-5.7 10 -2.4 10 1 10 C1 13.96 1 17.92 1 22 C-5.23314797 24.49325919 -9.91986892 25.04608225 -16.3125 22.875 C-20.1779184 20.17819646 -22.50908776 17.56008437 -23.41796875 12.8203125 C-23.67057629 8.76493737 -23.36155303 5.85376274 -20.875 2.5625 C-14.77286383 -2.8763605 -7.34671067 -3.56204154 0 0 Z " fill="#CDCDCD" transform="translate(374,323)"/>
<path d="M0 0 C1.98 0 3.96 0 6 0 C6.06058594 1.26457031 6.12117187 2.52914063 6.18359375 3.83203125 C6.26800904 5.49219871 6.35265655 7.15235437 6.4375 8.8125 C6.47681641 9.64587891 6.51613281 10.47925781 6.55664062 11.33789062 C6.59853516 12.14033203 6.64042969 12.94277344 6.68359375 13.76953125 C6.72025146 14.50792236 6.75690918 15.24631348 6.79467773 16.00708008 C6.94842141 18.207495 6.94842141 18.207495 8 21 C10.64 20.34 13.28 19.68 16 19 C16 12.73 16 6.46 16 0 C17.98 0 19.96 0 22 0 C22.14584064 3.22868746 22.23424106 6.45652365 22.3125 9.6875 C22.35439453 10.59951172 22.39628906 11.51152344 22.43945312 12.45117188 C22.52291136 17.04137465 22.52634241 19.27524579 19.76171875 23.08203125 C15.83668323 25.80790457 12.71813407 26.3002449 8 26 C4.23430553 24.44460446 1.96303394 22.5534807 0 19 C-0.37037832 15.7425605 -0.28177214 12.52293538 -0.1875 9.25 C-0.17396484 8.36183594 -0.16042969 7.47367187 -0.14648438 6.55859375 C-0.11121309 4.37177422 -0.06192752 2.18620034 0 0 Z " fill="#CCCCCC" transform="translate(205,321)"/>
<path d="M0 0 C5.61 0 11.22 0 17 0 C17 1.32 17 2.64 17 4 C13.37 4 9.74 4 6 4 C6 6.31 6 8.62 6 11 C8.97 11 11.94 11 15 11 C15 12.32 15 13.64 15 15 C12.03 15 9.06 15 6 15 C6 17.31 6 19.62 6 22 C9.63 22 13.26 22 17 22 C17 23.32 17 24.64 17 26 C11.39 26 5.78 26 0 26 C0 17.42 0 8.84 0 0 Z " fill="#CCCCCC" transform="translate(378,321)"/>
<path d="M0 0 C5.61 0 11.22 0 17 0 C17 1.32 17 2.64 17 4 C13.37 4 9.74 4 6 4 C6 6.31 6 8.62 6 11 C8.64 11 11.28 11 14 11 C14 12.32 14 13.64 14 15 C11.36 15 8.72 15 6 15 C6 17.31 6 19.62 6 22 C9.63 22 13.26 22 17 22 C17 23.32 17 24.64 17 26 C14.35409986 26.02684679 11.70846904 26.04676357 9.0625 26.0625 C8.30775391 26.07087891 7.55300781 26.07925781 6.77539062 26.08789062 C4.85005687 26.09652441 2.92464419 26.05224333 1 26 C0 25 0 25 -0.11352539 22.59155273 C-0.10828857 21.54942627 -0.10305176 20.5072998 -0.09765625 19.43359375 C-0.09443359 18.30888672 -0.09121094 17.18417969 -0.08789062 16.02539062 C-0.07951172 14.84138672 -0.07113281 13.65738281 -0.0625 12.4375 C-0.05798828 11.24962891 -0.05347656 10.06175781 -0.04882812 8.83789062 C-0.03699686 5.89190588 -0.01906076 2.94594684 0 0 Z " fill="#CDCDCD" transform="translate(367,364)"/>
<path d="M0 0 C2.31 0 4.62 0 7 0 C9.32655091 5.98410537 11.42934122 11.58008874 12 18 C12.66 18 13.32 18 14 18 C13.9175 17.360625 13.835 16.72125 13.75 16.0625 C14.05849533 12.28343217 15.39005929 9.56966234 17.02734375 6.18359375 C17.94378625 4.12619873 18.52682909 2.19650915 19 0 C20.98 0 22.96 0 25 0 C20.58127301 14.90583903 20.58127301 14.90583903 18.9375 18 C17.71479283 20.60844196 17.3872708 23.16001412 17 26 C14.69 26 12.38 26 10 26 C9.76925781 25.41734375 9.53851563 24.8346875 9.30078125 24.234375 C6.95797651 18.3449528 4.53550983 12.49509738 2.05078125 6.6640625 C1.17283954 4.43820284 0.5031631 2.33334977 0 0 Z " fill="#CCCCCC" transform="translate(219,364)"/>
<path d="M0 0 C1.0209375 0.86625 1.0209375 0.86625 2.0625 1.75 C2.0625 3.07 2.0625 4.39 2.0625 5.75 C1.30324219 5.66621094 0.54398438 5.58242188 -0.23828125 5.49609375 C-1.23214844 5.39425781 -2.22601563 5.29242188 -3.25 5.1875 C-4.23613281 5.08308594 -5.22226563 4.97867187 -6.23828125 4.87109375 C-9.03680347 4.58397473 -9.03680347 4.58397473 -11.9375 5.75 C-11.99166188 7.35379341 -12.03036638 8.95811406 -12.0625 10.5625 C-12.09730469 11.90248047 -12.09730469 11.90248047 -12.1328125 13.26953125 C-12.12035827 16.00402714 -12.12035827 16.00402714 -9.9375 18.75 C-6.10545218 19.09062647 -2.66861445 18.62790928 1.0625 17.75 C1.25 20.125 1.25 20.125 1.0625 22.75 C-2.67907125 25.24438083 -5.61336308 25.14161995 -9.9375 24.75 C-13.375 24 -13.375 24 -15.9375 22.75 C-16.8125 20.625 -16.8125 20.625 -16.9375 18.75 C-17.5975 18.75 -18.2575 18.75 -18.9375 18.75 C-21.02385413 14.57729174 -20.12184915 10.38980001 -18.875 6.0625 C-14.72079648 -1.03984795 -7.74100579 -3.29404502 0 0 Z " fill="#CCCCCC" transform="translate(248.9375,322.25)"/>
<path d="M0 0 C3.60984645 0.67674361 7.10964493 1.55012176 10.640625 2.55859375 C11.71183594 2.86216797 12.78304687 3.16574219 13.88671875 3.47851562 C16.11342607 4.11342462 18.33999071 4.74883421 20.56640625 5.38476562 C25.97254292 6.91596481 31.35940928 8.35373337 36.85498047 9.52368164 C41.5457106 10.56529495 46.17109157 11.88341733 50.80664062 13.14453125 C54.82851682 14.22187853 58.82968589 15.18472987 62.921875 15.95703125 C69.27919292 17.18532519 75.4094001 19.12508051 81.58398438 21.05273438 C82.47021484 21.31763672 83.35644531 21.58253906 84.26953125 21.85546875 C85.05948486 22.09934326 85.84943848 22.34321777 86.66333008 22.59448242 C92.18077371 23.55200764 96.28400164 20.93114436 100.875 18.1875 C102.05989583 17.49348958 103.24479167 16.79947917 104.4296875 16.10546875 C106.27507925 15.02279137 108.11171067 13.9313439 109.93457031 12.81103516 C111.58895386 11.8150637 113.291682 10.90032976 115 10 C115.99 10.495 115.99 10.495 117 11 C114.28952692 14.15239804 110.8352699 15.95198661 107.25 17.9375 C106.65445313 18.27201172 106.05890625 18.60652344 105.4453125 18.95117188 C104.23874063 19.62888919 103.02839649 20.29993245 101.81445312 20.96435547 C100.59510131 21.66033103 99.40006985 22.4005611 98.23242188 23.18017578 C95.28729177 25.09451035 93.3803314 26.00705188 89.83984375 25.94140625 C88.57269531 25.63074219 87.30554688 25.32007813 86 25 C85.12230957 24.79358887 84.24461914 24.58717773 83.34033203 24.37451172 C80.07239291 23.59406897 76.81776724 22.76918413 73.5625 21.9375 C71.05604835 21.30315318 68.54953545 20.66904832 66.04296875 20.03515625 C65.39249573 19.87011597 64.74202271 19.70507568 64.07183838 19.53503418 C59.27693977 18.31907985 54.47756087 17.12206006 49.67578125 15.93359375 C36.9386852 12.77799472 24.21060328 9.62152041 11.59375 6.0078125 C7.74447805 4.92834276 3.88220269 3.95337278 0 3 C0 2.01 0 1.02 0 0 Z " fill="#EDEDED" transform="translate(175,147)"/>
<path d="M0 0 C6.93 0 13.86 0 21 0 C21 1.65 21 3.3 21 5 C18.36 5 15.72 5 13 5 C13 11.93 13 18.86 13 26 C11.02 26 9.04 26 7 26 C7 19.07 7 12.14 7 5 C4.69 5 2.38 5 0 5 C0 3.35 0 1.7 0 0 Z " fill="#CCCCCC" transform="translate(253,321)"/>
<path d="M0 0 C6.6 0 13.2 0 20 0 C20 1.65 20 3.3 20 5 C17.69 5 15.38 5 13 5 C13 11.93 13 18.86 13 26 C11.02 26 9.04 26 7 26 C7 19.07 7 12.14 7 5 C4.69 5 2.38 5 0 5 C0 3.35 0 1.7 0 0 Z " fill="#CBCBCB" transform="translate(168,364)"/>
<path d="M0 0 C2.08866312 1.56772597 2.88192084 2.61606596 3.65234375 5.12109375 C4.4124238 11.29544267 4.4124238 11.29544267 2.5 14.5625 C-0.9320865 16.53594974 -3.10237025 16.55680425 -7 16 C-9.5 14.5625 -9.5 14.5625 -11 12 C-11.21881777 8.08951477 -11.09214907 4.42966453 -8.66015625 1.24609375 C-5.87162714 -0.84694339 -3.34552673 -0.35844929 0 0 Z " fill="#F2F2F2" transform="translate(166,326)"/>
<path d="M0 0 C1.98 0 3.96 0 6 0 C6 6.93 6 13.86 6 21 C9.3 21 12.6 21 16 21 C16 22.32 16 23.64 16 25 C10.72 25 5.44 25 0 25 C0 16.75 0 8.5 0 0 Z " fill="#CBCBCB" transform="translate(281,364)"/>
<path d="M0 0 C1.98 0 3.96 0 6 0 C6 6.93 6 13.86 6 21 C8.97 21 11.94 21 15 21 C15 22.32 15 23.64 15 25 C10.05 25 5.1 25 0 25 C0 16.75 0 8.5 0 0 Z " fill="#CACACA" transform="translate(350,364)"/>
<path d="M0 0 C0.7940625 0.07992188 1.588125 0.15984375 2.40625 0.2421875 C3.2003125 0.30664062 3.994375 0.37109375 4.8125 0.4375 C6.90625 1.1171875 6.90625 1.1171875 8.1796875 2.9375 C9.208497 6.02392849 9.03030392 8.89178554 8.90625 12.1171875 C6.92625 13.1071875 6.92625 13.1071875 4.90625 14.1171875 C4.90625 14.7771875 4.90625 15.4371875 4.90625 16.1171875 C1.59375 16.3671875 1.59375 16.3671875 -2.09375 16.1171875 C-4.32163178 13.94924872 -5.05828369 12.73257589 -5.23828125 9.609375 C-5.12871094 8.74570312 -5.01914063 7.88203125 -4.90625 6.9921875 C-4.80957031 6.12335938 -4.71289062 5.25453125 -4.61328125 4.359375 C-3.92662187 1.39589768 -3.13542951 0.17549046 0 0 Z " fill="#F3F3F3" transform="translate(153.09375,368.8828125)"/>
<path d="M0 0 C7 0 7 0 9.4375 1.375 C11.81022994 5.36118629 11.80523361 9.4732813 11 14 C9.97265625 16.3125 9.97265625 16.3125 8 18 C5.36 18 2.72 18 0 18 C0 12.06 0 6.12 0 0 Z " fill="#F2F2F2" transform="translate(185,325)"/>
<path d="M0 0 C0.33 0.66 0.66 1.32 1 2 C1.66 2 2.32 2 3 2 C3.18175781 2.56847656 3.36351562 3.13695312 3.55078125 3.72265625 C4.76598172 7.45550283 5.99767993 11.11220566 7.625 14.6875 C8.93745878 17.8493325 9.58722799 20.61526954 10 24 C8.02 24 6.04 24 4 24 C3.67 22.35 3.34 20.7 3 19 C-0.3 19 -3.6 19 -7 19 C-6.34 17.68 -5.68 16.36 -5 15 C-3.02 15 -1.04 15 1 15 C0.71890887 13.35232753 0.42481474 11.70686855 0.125 10.0625 C-0.11863281 8.68771484 -0.11863281 8.68771484 -0.3671875 7.28515625 C-0.57601563 6.53105469 -0.78484375 5.77695312 -1 5 C-1.66 4.67 -2.32 4.34 -3 4 C-3 3.01 -3 2.02 -3 1 C-2.01 0.67 -1.02 0.34 0 0 Z " fill="#CCCCCC" transform="translate(257,365)"/>
<path d="M0 0 C1.98 0 3.96 0 6 0 C6 8.58 6 17.16 6 26 C4.02 26 2.04 26 0 26 C0 17.42 0 8.84 0 0 Z " fill="#CBCBCB" transform="translate(270,364)"/>
<path d="M0 0 C1.98 0 3.96 0 6 0 C6 8.58 6 17.16 6 26 C4.02 26 2.04 26 0 26 C0 17.42 0 8.84 0 0 Z " fill="#CBCBCB" transform="translate(284,321)"/>
<path d="M0 0 C0.66 0.33 1.32 0.66 2 1 C1.83923477 1.54839539 1.67846954 2.09679077 1.51283264 2.6618042 C0.93486688 5.29696624 0.8388029 7.71319418 0.79467773 10.41113281 C0.77473251 11.49195129 0.75478729 12.57276978 0.73423767 13.68634033 C0.70916893 15.42714874 0.70916893 15.42714874 0.68359375 17.203125 C0.66281265 18.39605164 0.64203156 19.58897827 0.62062073 20.8180542 C0.55523761 24.62864423 0.49629224 28.43930314 0.4375 32.25 C0.39430411 34.83334046 0.35068948 37.41667395 0.30664062 40 C0.19956766 46.33326052 0.09778028 52.66658956 0 59 C-0.33 59 -0.66 59 -1 59 C-1 40.85 -1 22.7 -1 4 C-5.95 6.64 -10.9 9.28 -16 12 C-17.98 12.99 -17.98 12.99 -20 14 C-20 13.34 -20 12.68 -20 12 C-20.66 12 -21.32 12 -22 12 C-21.67 11.01 -21.34 10.02 -21 9 C-21 9.66 -21 10.32 -21 11 C-20.37432129 10.66154053 -19.74864258 10.32308105 -19.10400391 9.97436523 C-16.2820476 8.45378127 -13.45368801 6.94552133 -10.625 5.4375 C-9.64015625 4.90447266 -8.6553125 4.37144531 -7.640625 3.82226562 C-6.22910156 3.07299805 -6.22910156 3.07299805 -4.7890625 2.30859375 C-3.91975098 1.84251709 -3.05043945 1.37644043 -2.15478516 0.89624023 C-1.44370605 0.60048096 -0.73262695 0.30472168 0 0 Z " fill="#E0E0E0" transform="translate(335,162)"/>
<path d="M0 0 C2.375 -0.125 2.375 -0.125 5 0 C5.66 0.66 6.32 1.32 7 2 C6.625 5.625 6.625 5.625 6 9 C4.02 9 2.04 9 0 9 C0 6.03 0 3.06 0 0 Z " fill="#F2F2F2" transform="translate(111,325)"/>
<path d="M0 0 C2.31 0 4.62 0 7 0 C8.125 4.75 8.125 4.75 7 7 C4.69 7 2.38 7 0 7 C0 4.69 0 2.38 0 0 Z " fill="#F1F1F1" transform="translate(332,379)"/>
<path d="M0 0 C2.27024968 -0.08097324 4.54132075 -0.13917704 6.8125 -0.1875 C8.07707031 -0.22230469 9.34164062 -0.25710938 10.64453125 -0.29296875 C14 0 14 0 15.94921875 1.51171875 C16.29597656 2.00285156 16.64273438 2.49398438 17 3 C16.67 3.99 16.34 4.98 16 6 C15.34 6 14.68 6 14 6 C14 7.65 14 9.3 14 11 C13.67 11 13.34 11 13 11 C12.34 9.02 11.68 7.04 11 5 C9.35 4.67 7.7 4.34 6 4 C6.99 3.67 7.98 3.34 9 3 C9 2.34 9 1.68 9 1 C6.03 1 3.06 1 0 1 C0 0.67 0 0.34 0 0 Z " fill="#D1D1D1" transform="translate(105,321)"/>
<path d="M0 0 C2.97 0.495 2.97 0.495 6 1 C6.33 2.65 6.66 4.3 7 6 C4 8 4 8 0 8 C0 5.36 0 2.72 0 0 Z " fill="#F2F2F2" transform="translate(134,325)"/>
<path d="M0 0 C2.31 0 4.62 0 7 0 C7 1.98 7 3.96 7 6 C4.69 6.33 2.38 6.66 0 7 C0 4.69 0 2.38 0 0 Z " fill="#F1F1F1" transform="translate(332,368)"/>
<path d="M0 0 C2.52259061 1.97420135 2.9929808 2.96745642 3.6875 6.1875 C3.790625 7.115625 3.89375 8.04375 4 9 C1.69 9 -0.62 9 -3 9 C-2.25 2.25 -2.25 2.25 0 0 Z " fill="#EDEDED" transform="translate(310,371)"/>
<path d="M0 0 C0.66 0 1.32 0 2 0 C3.31626692 3.61973402 4 6.09567131 4 10 C2.02 10 0.04 10 -2 10 C-1.54177532 6.53058454 -1.10868317 3.32604951 0 0 Z " fill="#EEEEEE" transform="translate(254,370)"/>
<path d="M0 0 C0.66 0 1.32 0 2 0 C5 5.625 5 5.625 5 9 C2.69 9 0.38 9 -2 9 C-1.125 2.25 -1.125 2.25 0 0 Z " fill="#EDEDED" transform="translate(208,371)"/>
<path d="M0 0 C-3.56687122 3.04408304 -7.09510916 5.21082201 -11.3125 7.25 C-12.38113281 7.77078125 -13.44976562 8.2915625 -14.55078125 8.828125 C-15.76314453 9.40820312 -15.76314453 9.40820312 -17 10 C-17.66 9.34 -18.32 8.68 -19 8 C-16.40251918 6.4666195 -13.79812104 4.94820332 -11.1875 3.4375 C-10.44951172 2.99986328 -9.71152344 2.56222656 -8.95117188 2.11132812 C-8.23896484 1.70205078 -7.52675781 1.29277344 -6.79296875 0.87109375 C-6.1383667 0.48880615 -5.48376465 0.10651855 -4.80932617 -0.28735352 C-3 -1 -3 -1 0 0 Z " fill="#EAEAEA" transform="translate(334,135)"/>
<path d="M0 0 C0.99 0.33 1.98 0.66 3 1 C3.33 3.31 3.66 5.62 4 8 C2.02 8 0.04 8 -2 8 C-1.125 2.25 -1.125 2.25 0 0 Z " fill="#F0F0F0" transform="translate(338,329)"/>
<path d="M0 0 C3.96 0 7.92 0 12 0 C12 0.99 12 1.98 12 3 C8.04 3 4.08 3 0 3 C0 2.01 0 1.02 0 0 Z " fill="#C7C7C7" transform="translate(372,386)"/>
<path d="M0 0 C-0.99 0.495 -0.99 0.495 -2 1 C-2 1.66 -2 2.32 -2 3 C0.97 3.495 0.97 3.495 4 4 C0.11764181 5.49828872 -2.43449288 4.43110582 -6.25 3.0625 C-7.32765625 2.68222656 -8.4053125 2.30195313 -9.515625 1.91015625 C-10.33546875 1.60980469 -11.1553125 1.30945313 -12 1 C-11.38125 0.855625 -10.7625 0.71125 -10.125 0.5625 C-6.08797636 -0.50612391 -4.3153141 -0.84430058 0 0 Z " fill="#E7E7E7" transform="translate(211,182)"/>
<path d="M0 0 C0 0.33 0 0.66 0 1 C-0.58007812 1.06316406 -1.16015625 1.12632812 -1.7578125 1.19140625 C-7.6737175 2.1188171 -10.40164727 3.75557496 -14.00390625 8.5390625 C-14.33261719 9.02117187 -14.66132813 9.50328125 -15 10 C-15.33 9.01 -15.66 8.02 -16 7 C-10.55226178 1.24960965 -7.9911838 -0.30735322 0 0 Z " fill="#D4D4D4" transform="translate(246,321)"/>
<path d="M0 0 C0.66 0.33 1.32 0.66 2 1 C1.50628906 1.4125 1.01257813 1.825 0.50390625 2.25 C-2.99558463 5.40447065 -5.38764441 7.61767206 -5.9375 12.4375 C-5.958125 13.613125 -5.97875 14.78875 -6 16 C-6.33 16 -6.66 16 -7 16 C-7.62627475 8.014997 -7.62627475 8.014997 -5.1875 4.0625 C-3 2 -3 2 0 0 Z " fill="#D6D6D6" transform="translate(156,322)"/>
<path d="M0 0 C0.99 0 1.98 0 3 0 C3.33 0.66 3.66 1.32 4 2 C3.0625 4.125 3.0625 4.125 2 6 C0.35 6 -1.3 6 -3 6 C-2.01 4.02 -1.02 2.04 0 0 Z " fill="#C7C7C7" transform="translate(245,383)"/>
<path d="M0 0 C0.66 0.33 1.32 0.66 2 1 C0.63016497 4.16115776 0.0109362 4.9927092 -3 7 C-3.57748803 8.96361864 -3.57748803 8.96361864 -3.6875 11.125 C-3.790625 12.40375 -3.89375 13.6825 -4 15 C-4.33 15 -4.66 15 -5 15 C-5.76681614 7.33183857 -5.76681614 7.33183857 -3.88671875 4.06640625 C-2.5 2.4375 -2.5 2.4375 0 0 Z " fill="#D7D7D7" transform="translate(356,323)"/>
<path d="M0 0 C6.52307692 0.61538462 6.52307692 0.61538462 8.9375 2.5625 C9.288125 3.036875 9.63875 3.51125 10 4 C6.53058454 3.54177532 3.32604951 3.10868317 0 2 C0 1.34 0 0.68 0 0 Z " fill="#FAFAFA" transform="translate(209,183)"/>
<path d="M0 0 C1.48117801 0.28127421 2.95993249 0.57533732 4.4375 0.875 C5.67306641 1.11863281 5.67306641 1.11863281 6.93359375 1.3671875 C7.61550781 1.57601562 8.29742187 1.78484375 9 2 C9.33 2.66 9.66 3.32 10 4 C7.03 3.67 4.06 3.34 1 3 C0.67 2.01 0.34 1.02 0 0 Z " fill="#F9F9F9" transform="translate(196,179)"/>
<path d="M0 0 C0.66 0.33 1.32 0.66 2 1 C1.34 2.32 0.68 3.64 0 5 C-2.97 4.505 -2.97 4.505 -6 4 C-4.03617993 2.49440461 -2.21736634 1.10868317 0 0 Z " fill="#E6E6E6" transform="translate(335,162)"/>
</svg>
